<svg xmlns="http://www.w3.org/2000/svg" width="500" height="500" viewBox="0 0 500 500" fill="none"><mask id="mask0_21_7945" style="mask-type:luminance" maskUnits="userSpaceOnUse" x="19" y="78" width="462" height="344"><path d="M480.208 78.125H19.7917V421.875H480.208V78.125Z" fill="white"></path></mask><g mask="url(#mask0_21_7945)"><path fill-rule="evenodd" clip-rule="evenodd" d="M258.175 201.934C256.463 203.472 254.536 205.205 252.451 207.469C248.059 212.24 247.859 220.157 248.138 224.527H248.144C248.615 224.727 271.64 234.105 282.834 209.81C294.14 185.266 295.582 149.408 286.439 140.266C277.296 131.123 259.25 115.481 227.004 126.792C194.758 138.103 187.298 159.784 187.298 159.784C187.298 159.784 155.353 235.726 73.7769 170.993C101.356 222.693 139.104 236.495 169.975 237.139C180.097 237.315 190.201 236.203 200.042 233.831C211.451 231.105 219.816 227.403 223.217 225.516C223.628 225.284 224.014 225.01 224.367 224.698C233.48 216.705 228.673 180.691 226.566 167.539C243.395 167.884 260.842 163.231 268.257 160.976C269.29 166.11 267.194 185.823 265.45 192.128C264.24 196.48 261.653 198.807 258.175 201.934ZM263.097 129.339C262.675 129.25 262.261 129.521 262.173 129.943C262.084 130.366 262.355 130.78 262.777 130.868C273.188 133.043 281.457 141.874 285.082 152.023C288.706 162.171 288.254 173.414 286.145 184.114C286.061 184.536 286.337 184.947 286.76 185.031C287.183 185.115 287.594 184.839 287.678 184.416C289.814 173.581 290.311 162.02 286.553 151.497C282.796 140.976 274.171 131.653 263.097 129.339Z" fill="black"></path><path d="M363.703 256.016C363.703 256.016 398.342 264.919 399.907 295.36C401.338 323.229 396.297 323.152 384.745 333.982C384.745 333.973 384.742 333.965 384.74 333.957C384.602 332.776 379.948 293.877 366.563 296.439L364.73 270.573L363.703 256.016Z" fill="black" fill-opacity="0.15"></path><path d="M336.968 111.85L425.576 172.169L389.976 221.658L309.844 170.451L336.968 111.85ZM377.677 166.875L384.417 165.408L379.156 160.948L379.841 154.081L373.971 157.711L367.656 154.936L369.298 161.641L364.706 166.79L371.584 167.301L375.066 173.258L377.677 166.875Z" fill="black" fill-opacity="0.15"></path><path d="M384.417 165.41L377.677 166.877L375.064 173.259L371.582 167.302L364.704 166.79L369.297 161.641L367.655 154.937L373.97 157.714L379.84 154.083L379.155 160.951L384.417 165.41Z" fill="black"></path><path d="M98.7509 254.688C98.7509 255.52 98.9983 256.333 99.4608 257.025C99.9233 257.716 100.581 258.255 101.349 258.573C102.118 258.891 102.964 258.974 103.78 258.811C104.596 258.648 105.345 258.247 105.933 257.658C106.521 257.069 106.921 256.32 107.083 255.504C107.245 254.688 107.161 253.842 106.842 253.074C106.523 252.305 105.983 251.649 105.292 251.187C104.599 250.725 103.786 250.479 102.954 250.479C102.401 250.48 101.855 250.589 101.344 250.8C100.834 251.012 100.371 251.322 99.98 251.713C99.5899 252.104 99.2806 252.567 99.0691 253.078C98.8582 253.588 98.7498 254.136 98.7509 254.688ZM115.227 258.896C116.059 258.898 116.873 258.651 117.566 258.189C118.259 257.727 118.799 257.07 119.118 256.301C119.437 255.532 119.521 254.686 119.359 253.869C119.197 253.052 118.796 252.302 118.208 251.713C117.619 251.124 116.869 250.723 116.053 250.56C115.236 250.398 114.39 250.48 113.621 250.799C112.851 251.117 112.194 251.657 111.731 252.349C111.269 253.041 111.022 253.855 111.022 254.688C111.021 255.24 111.13 255.787 111.34 256.298C111.552 256.808 111.861 257.272 112.252 257.663C112.642 258.053 113.106 258.363 113.615 258.575C114.126 258.787 114.673 258.895 115.225 258.895L115.227 258.896ZM126.988 258.896C127.82 258.898 128.635 258.652 129.327 258.19C130.02 257.728 130.561 257.071 130.88 256.302C131.2 255.533 131.284 254.687 131.122 253.87C130.96 253.053 130.56 252.303 129.972 251.714C129.383 251.125 128.633 250.723 127.816 250.56C127 250.398 126.153 250.48 125.384 250.799C124.614 251.117 123.957 251.657 123.494 252.349C123.032 253.041 122.785 253.855 122.785 254.688C122.784 255.803 123.226 256.873 124.014 257.662C124.802 258.451 125.871 258.895 126.986 258.895L126.988 258.896ZM151.758 258.896L318.93 263.473V253.817L151.756 250.478L151.758 258.896ZM363.091 247.355L363.705 256.017L364.732 270.576L363.903 270.632L88.7076 266.127L88.4009 240.856L151.758 242.354L340.345 246.818L363.091 247.355Z" fill="black" fill-opacity="0.15"></path><path d="M307.136 365.385L321.397 344.808L352.621 371.88H353.582V388.09C353.582 389.519 353.014 390.89 352.004 391.9C350.993 392.911 349.622 393.479 348.193 393.479H270.446C269.017 393.479 267.646 392.911 266.635 391.9C265.625 390.89 265.057 389.519 265.057 388.09V369.594L287.648 337.865L307.136 365.385Z" fill="black"></path><path d="M342.512 343.606C342.307 345.974 347.319 346.644 353.583 346.588V371.879H352.621L321.398 344.808L307.136 365.385L287.648 337.865L265.057 369.594V303.839C265.057 302.409 265.625 301.038 266.635 300.028C267.646 299.017 269.017 298.449 270.446 298.448H348.193C349.623 298.449 350.993 299.017 352.004 300.028C353.015 301.038 353.583 302.409 353.583 303.839V315L353.629 315.251C349.026 316.156 345.399 317.454 345.399 319.301C345.399 321.182 349.03 322.328 353.586 323.028L353.581 323.07V325.739L353.617 325.989C348.457 326.991 344.242 328.49 344.438 330.729C344.617 332.846 348.646 333.935 353.617 334.467L353.581 334.831V337.865L353.622 338.023C347.722 339.479 342.709 341.362 342.512 343.606ZM309.32 321.695C309.321 319.837 308.771 318.02 307.739 316.475C306.708 314.929 305.241 313.725 303.524 313.013C301.808 312.301 299.919 312.114 298.097 312.476C296.274 312.838 294.6 313.732 293.285 315.046C291.971 316.359 291.076 318.033 290.713 319.855C290.35 321.678 290.536 323.567 291.247 325.283C291.958 327 293.162 328.468 294.707 329.5C296.251 330.532 298.068 331.083 299.926 331.083C301.159 331.084 302.381 330.842 303.52 330.37C304.66 329.898 305.695 329.207 306.568 328.335C307.44 327.463 308.132 326.428 308.604 325.289C309.076 324.15 309.32 322.928 309.32 321.695Z" fill="black" fill-opacity="0.15"></path><path d="M258.297 230.265L258.368 233.829L258.583 233.824C258.583 233.824 297.743 232.919 340.344 246.813V246.817L151.756 242.353C151.756 242.353 167.567 237.163 169.975 237.163V237.136C180.098 237.312 190.201 236.2 200.043 233.828C211.449 231.102 219.817 227.4 223.22 225.513C223.631 225.281 224.017 225.007 224.371 224.695L248.329 228.627L258.297 230.265Z" fill="black" fill-opacity="0.15"></path><path d="M249.547 328.869H234.288C232.122 328.869 230.366 330.625 230.366 332.791V335.051C230.366 337.217 232.122 338.973 234.288 338.973H249.547C251.713 338.973 253.469 337.217 253.469 335.051V332.791C253.469 330.625 251.713 328.869 249.547 328.869Z" fill="black" fill-opacity="0.15"></path><path d="M155.918 309.663L147.849 317.527L149.751 328.639L139.78 323.392L129.803 328.639L131.705 317.527L123.636 309.663L134.789 308.042L139.78 297.937L144.765 308.042L155.918 309.663Z" fill="black"></path><path d="M77.5691 123.181L127.385 81.674L135.5 91.6969L134.36 92.6224L86.5483 132.247L77.5691 123.181Z" fill="black" fill-opacity="0.15"></path><path d="M119.433 254.687C119.433 255.519 119.186 256.332 118.723 257.023C118.261 257.715 117.604 258.254 116.836 258.572C116.067 258.89 115.222 258.973 114.406 258.811C113.59 258.648 112.841 258.248 112.253 257.66C111.664 257.071 111.264 256.322 111.102 255.506C110.939 254.691 111.022 253.845 111.34 253.077C111.659 252.308 112.197 251.651 112.889 251.189C113.58 250.727 114.393 250.48 115.225 250.479C115.777 250.479 116.325 250.587 116.836 250.798C117.347 251.01 117.811 251.32 118.201 251.711C118.592 252.102 118.902 252.566 119.114 253.077C119.325 253.587 119.434 254.135 119.433 254.687Z" fill="black" fill-opacity="0.15"></path><path d="M109.032 131.665L112.494 135.301L107.503 135.838L105.115 140.251L103.059 135.669L98.1248 134.764L101.848 131.394L101.188 126.418L105.539 128.919L110.065 126.751L109.032 131.665Z" fill="black"></path><path d="M107.161 254.687C107.16 255.519 106.913 256.332 106.451 257.023C105.988 257.715 105.332 258.254 104.563 258.572C103.795 258.89 102.949 258.973 102.134 258.811C101.318 258.648 100.569 258.248 99.9801 257.66C99.392 257.072 98.9915 256.322 98.829 255.507C98.6665 254.691 98.7499 253.845 99.0676 253.077C99.3858 252.308 99.9243 251.652 100.616 251.189C101.307 250.727 102.12 250.48 102.952 250.479C103.505 250.479 104.052 250.587 104.563 250.798C105.074 251.01 105.538 251.32 105.929 251.711C106.32 252.102 106.63 252.566 106.841 253.077C107.052 253.587 107.161 254.135 107.161 254.687Z" fill="black"></path><path d="M89.4163 325.321C111.778 351.088 186.216 347.697 191.273 351.308C192.05 351.865 192.649 352.898 193.058 354.277C194.673 359.707 193.395 370.517 188.742 378.811C187.007 382.077 184.538 384.894 181.527 387.041C173.698 392.339 125.15 397.344 90.1986 386.672C70.3736 380.618 54.9251 369.527 53.7491 350.586C50.497 298.242 88.8689 279.835 88.8689 279.835L89.4163 325.321Z" fill="black" fill-opacity="0.15"></path><path d="M367.727 312.899L366.561 296.439L364.73 270.574L363.703 256.016L363.089 247.354L340.344 246.817L151.756 242.353L88.3992 240.855L88.7059 266.126L88.8695 279.835L89.4169 325.32L89.4273 326.103" stroke="black" stroke-linecap="round" stroke-linejoin="round"></path><path d="M90.1528 386.831L90.5669 420.611L374.635 410.502L370.068 345.964" stroke="black" stroke-linecap="round" stroke-linejoin="round"></path><path d="M86.5483 132.247L115.471 161.446L158.066 119.571L135.5 91.6969L127.385 81.674L77.5691 123.181L86.5483 132.247Z" stroke="black" stroke-linecap="round" stroke-linejoin="round"></path><path d="M336.968 111.85L309.846 170.451L389.976 221.658L425.576 172.169L433.292 161.446L343.417 97.9157L336.968 111.85Z" stroke="black" stroke-linecap="round" stroke-linejoin="round"></path><path d="M248.141 224.528C247.86 220.155 248.059 212.24 252.452 207.469C258.772 200.606 263.646 198.622 265.45 192.128C267.194 185.823 269.291 166.11 268.258 160.976C268.227 160.82 268.191 160.669 268.153 160.542" stroke="black" stroke-linecap="round" stroke-linejoin="round"></path><path d="M248.484 227.677C248.484 227.677 248.269 226.44 248.146 224.527" stroke="black" stroke-linecap="round" stroke-linejoin="round"></path><path d="M271.945 159.785C271.945 159.785 270.605 160.261 268.258 160.976C260.843 163.231 243.396 167.884 226.567 167.539C225.447 167.518 224.327 167.472 223.218 167.401" stroke="black" stroke-linecap="round" stroke-linejoin="round"></path><path d="M73.7793 170.993C101.356 222.691 139.105 236.493 169.977 237.139C180.1 237.315 190.203 236.203 200.045 233.831C211.451 231.105 219.819 227.403 223.222 225.516C223.633 225.284 224.019 225.01 224.373 224.698C233.487 216.705 228.678 180.691 226.571 167.539C226.091 164.527 225.748 162.712 225.748 162.712" stroke="black" stroke-linecap="round" stroke-linejoin="round"></path><path d="M248.141 224.527H248.146C248.615 224.727 271.643 234.105 282.837 209.81C294.142 185.265 295.59 149.414 286.441 140.266C277.293 131.117 259.254 115.48 227.006 126.792C194.759 138.103 187.3 159.784 187.3 159.784C187.3 159.784 155.355 235.726 73.7793 170.993" stroke="black" stroke-linecap="round" stroke-linejoin="round"></path><path d="M88.8689 279.835C88.8689 279.835 50.497 298.244 53.7491 350.586C54.9251 369.527 70.3736 380.618 90.1986 386.672C125.15 397.344 173.698 392.339 181.527 387.041C184.538 384.894 187.007 382.077 188.742 378.811C193.395 370.517 194.674 359.707 193.058 354.277C192.649 352.896 192.05 351.863 191.273 351.308C186.216 347.697 111.778 351.088 89.4163 325.321" stroke="black" stroke-linecap="round" stroke-linejoin="round"></path><path d="M363.703 256.016C363.703 256.016 398.342 264.919 399.907 295.36C401.338 323.229 396.297 323.152 384.745 333.982C384.745 333.973 384.742 333.965 384.74 333.957C384.602 332.776 379.948 293.877 366.563 296.439" stroke="black" stroke-linecap="round" stroke-linejoin="round"></path><path d="M224.368 224.696L248.325 228.628L258.297 230.264L258.368 233.829L258.45 237.74" stroke="black" stroke-linecap="round" stroke-linejoin="round"></path><path d="M200.043 233.823V233.829V237.868" stroke="black" stroke-linecap="round" stroke-linejoin="round"></path><path d="M151.756 242.353C151.756 242.353 167.567 237.163 169.975 237.163" stroke="black" stroke-linecap="round" stroke-linejoin="round"></path><path d="M258.583 233.824C258.583 233.824 297.742 232.918 340.343 246.812" stroke="black" stroke-linecap="round" stroke-linejoin="round"></path><path d="M206.24 362.348C208.695 361.939 236.87 357.311 236.87 362.379C236.87 367.671 211.124 369.354 211.124 369.354C211.124 369.354 237.111 368.152 236.87 372.483C236.63 376.814 188.742 378.814 188.742 378.814" stroke="black" stroke-linecap="round" stroke-linejoin="round"></path><path d="M206.072 362.378C206.079 362.378 206.086 362.376 206.093 362.373C206.112 362.371 206.131 362.367 206.149 362.363" stroke="black" stroke-linecap="round" stroke-linejoin="round"></path><path d="M206.149 362.363C206.13 362.367 206.112 362.371 206.092 362.373" stroke="black" stroke-linecap="round" stroke-linejoin="round"></path><path d="M206.149 362.363C206.179 362.362 206.211 362.357 206.24 362.347" stroke="black" stroke-linecap="round" stroke-linejoin="round"></path><path d="M193.058 354.278C193.058 354.278 194.975 334.944 200.043 334.704C205.111 334.464 201.741 355.641 201.741 355.641C201.741 355.641 232.299 348.18 232.54 352.752C232.77 357.108 208.506 361.91 206.24 362.35" stroke="black" stroke-linecap="round" stroke-linejoin="round"></path><path d="M372.835 334.699C372.82 334.7 372.804 334.701 372.789 334.704C372.022 334.745 361.605 335.329 353.618 334.469C348.648 333.937 344.618 332.848 344.439 330.731C344.245 328.491 348.459 326.993 353.618 325.991C361.493 324.467 371.567 324.116 371.567 324.116C371.567 324.116 361.263 324.213 353.588 323.032C349.032 322.331 345.401 321.186 345.401 319.304C345.401 317.458 349.026 316.159 353.63 315.254C358.308 314.415 363.03 313.848 367.774 313.556C370.639 313.362 372.591 313.291 372.591 313.291" stroke="black" stroke-linecap="round" stroke-linejoin="round"></path><path d="M384.294 333.982C384.294 333.982 383.21 344.087 375.961 344.808C374.54 344.951 371.865 345.268 368.617 345.601C364.086 346.066 358.456 346.546 353.583 346.588C347.319 346.644 342.308 345.974 342.513 343.606C342.707 341.362 347.721 339.48 353.624 338.023C361.939 335.977 372.01 334.793 372.791 334.704" stroke="black" stroke-linecap="round" stroke-linejoin="round"></path><path d="M88.7053 266.126L363.902 270.631" stroke="black" stroke-linecap="round" stroke-linejoin="round"></path><path d="M151.756 250.478V258.895L318.928 263.472V253.817L151.756 250.478Z" stroke="black" stroke-linecap="round" stroke-linejoin="round"></path><path d="M107.161 254.687C107.16 255.519 106.913 256.332 106.451 257.023C105.988 257.715 105.332 258.254 104.563 258.572C103.795 258.89 102.949 258.973 102.134 258.811C101.318 258.648 100.569 258.248 99.9801 257.66C99.392 257.072 98.9915 256.322 98.829 255.507C98.6665 254.691 98.7499 253.845 99.0676 253.077C99.3858 252.308 99.9243 251.652 100.616 251.189C101.307 250.727 102.12 250.48 102.952 250.479C103.505 250.479 104.052 250.587 104.563 250.798C105.074 251.01 105.538 251.32 105.929 251.711C106.32 252.102 106.63 252.566 106.841 253.077C107.052 253.587 107.161 254.135 107.161 254.687Z" stroke="black" stroke-linecap="round" stroke-linejoin="round"></path><path d="M119.433 254.687C119.433 255.519 119.186 256.332 118.723 257.023C118.261 257.715 117.604 258.254 116.836 258.572C116.067 258.89 115.222 258.973 114.406 258.811C113.59 258.648 112.841 258.248 112.253 257.66C111.664 257.071 111.264 256.322 111.102 255.506C110.939 254.691 111.022 253.845 111.34 253.077C111.659 252.308 112.197 251.651 112.889 251.189C113.58 250.727 114.393 250.48 115.225 250.479C115.777 250.479 116.325 250.587 116.836 250.798C117.347 251.01 117.811 251.32 118.201 251.711C118.592 252.102 118.902 252.566 119.114 253.077C119.325 253.587 119.434 254.135 119.433 254.687Z" stroke="black" stroke-linecap="round" stroke-linejoin="round"></path><path d="M131.194 254.687C131.193 255.519 130.947 256.332 130.484 257.023C130.022 257.714 129.365 258.253 128.597 258.571C127.828 258.889 126.983 258.972 126.167 258.809C125.352 258.647 124.602 258.247 124.014 257.659C123.426 257.071 123.026 256.321 122.864 255.506C122.701 254.691 122.784 253.845 123.102 253.077C123.42 252.308 123.959 251.652 124.65 251.189C125.341 250.727 126.154 250.48 126.986 250.479C127.539 250.479 128.086 250.587 128.597 250.798C129.108 251.01 129.572 251.32 129.962 251.711C130.353 252.102 130.663 252.566 130.875 253.077C131.086 253.587 131.195 254.135 131.194 254.687Z" stroke="black" stroke-linecap="round" stroke-linejoin="round"></path><path d="M154.998 283.629H303.889" stroke="black" stroke-linecap="round" stroke-linejoin="round"></path><path d="M180.187 311.207L252.861 311.171" stroke="black" stroke-linecap="round" stroke-linejoin="round"></path><path d="M209.222 319.818L252.084 319.573" stroke="black" stroke-linecap="round" stroke-linejoin="round"></path><path d="M139.78 297.937L144.765 308.042L155.918 309.663L147.849 317.527L149.751 328.639L139.78 323.392L129.803 328.639L131.705 317.527L123.636 309.663L134.789 308.042L139.78 297.937Z" stroke="black" stroke-linecap="round" stroke-linejoin="round"></path><path d="M249.547 328.869H234.288C232.122 328.869 230.366 330.625 230.366 332.791V335.051C230.366 337.217 232.122 338.973 234.288 338.973H249.547C251.713 338.973 253.469 337.217 253.469 335.051V332.791C253.469 330.625 251.713 328.869 249.547 328.869Z" stroke="black" stroke-linecap="round" stroke-linejoin="round"></path><path d="M353.583 346.976V388.089C353.583 389.519 353.015 390.89 352.004 391.9C350.993 392.911 349.623 393.479 348.193 393.479H270.446C269.017 393.479 267.646 392.911 266.635 391.9C265.625 390.89 265.057 389.519 265.057 388.089V303.839C265.057 302.409 265.625 301.038 266.635 300.028C267.646 299.017 269.017 298.449 270.446 298.448H348.193C349.623 298.449 350.993 299.017 352.004 300.028C353.015 301.038 353.583 302.409 353.583 303.839V315" stroke="black" stroke-linecap="round" stroke-linejoin="round"></path><path d="M353.583 323.07V325.74" stroke="black" stroke-linecap="round" stroke-linejoin="round"></path><path d="M336.969 111.85L425.577 172.169" stroke="black" stroke-linecap="round" stroke-linejoin="round"></path><path d="M345.641 163.671L379.57 186.953" stroke="black" stroke-linecap="round" stroke-linejoin="round"></path><path d="M352.621 177.565L363.902 185.025" stroke="black" stroke-linecap="round" stroke-linejoin="round"></path><path d="M86.5476 132.248L134.36 92.6229" stroke="black" stroke-linecap="round" stroke-linejoin="round"></path><path d="M119.08 121.561L134.36 108.926" stroke="black" stroke-linecap="round" stroke-linejoin="round"></path><path d="M119.08 132.928L140.378 114.34" stroke="black" stroke-linecap="round" stroke-linejoin="round"></path><path d="M134.359 130.039L141.641 123.632" stroke="black" stroke-linecap="round" stroke-linejoin="round"></path><path d="M258.584 169.265L258.297 173.473" stroke="black" stroke-linecap="round" stroke-linejoin="round"></path><path d="M239.167 169.239L238.911 173.504" stroke="black" stroke-linecap="round" stroke-linejoin="round"></path><path d="M253.838 181.297C253.838 181.297 254.441 190.68 253.357 191.766C252.273 192.851 248.059 190.804 248.059 190.804" stroke="black" stroke-linecap="round" stroke-linejoin="round"></path><path d="M234.467 199.936C234.467 199.936 235.546 204.881 238.676 206.563C241.805 208.245 245.047 205.719 245.047 205.719" stroke="black" stroke-linecap="round" stroke-linejoin="round"></path><path d="M379.84 154.083L379.155 160.951L384.417 165.41L377.677 166.877L375.064 173.259L371.582 167.302L364.704 166.79L369.297 161.641L367.655 154.937L373.97 157.714L379.84 154.083Z" stroke="black" stroke-linecap="round" stroke-linejoin="round"></path><path d="M110.065 126.751L109.032 131.665L112.494 135.301L107.503 135.838L105.115 140.251L103.059 135.669L98.1248 134.764L101.848 131.394L101.188 126.418L105.539 128.919L110.065 126.751Z" stroke="black" stroke-linecap="round" stroke-linejoin="round"></path><path d="M348.889 113.676C350.151 113.676 351.175 112.652 351.175 111.39C351.175 110.127 350.151 109.104 348.889 109.104C347.626 109.104 346.603 110.127 346.603 111.39C346.603 112.652 347.626 113.676 348.889 113.676Z" stroke="black" stroke-linecap="round" stroke-linejoin="round"></path><path d="M353.583 334.832V337.864" stroke="black" stroke-linecap="round" stroke-linejoin="round"></path><path d="M265.057 369.594L287.648 337.864L307.136 365.385L321.398 344.808L352.621 371.88" stroke="black" stroke-linecap="round" stroke-linejoin="round"></path><path d="M309.32 321.695C309.32 323.553 308.769 325.369 307.737 326.914C306.704 328.459 305.237 329.663 303.521 330.374C301.804 331.085 299.915 331.271 298.093 330.909C296.271 330.546 294.597 329.652 293.284 328.338C291.97 327.024 291.075 325.35 290.713 323.528C290.35 321.706 290.536 319.817 291.247 318.101C291.958 316.384 293.162 314.917 294.707 313.885C296.252 312.853 298.068 312.302 299.926 312.302C301.16 312.301 302.382 312.544 303.522 313.016C304.661 313.488 305.697 314.179 306.57 315.052C307.442 315.924 308.134 316.96 308.606 318.1C309.078 319.24 309.32 320.462 309.32 321.695Z" stroke="black" stroke-linecap="round" stroke-linejoin="round"></path><path d="M52.2013 197.419C53.3675 203.468 55.743 209.204 57.6378 215.064C59.5326 220.924 60.9711 227.105 60.1742 233.212C59.3774 239.32 55.9737 245.378 50.3827 247.959C44.7915 250.54 37.0884 248.559 34.5264 242.959C31.9645 237.358 36.8504 229.51 42.9504 230.369C46.2613 230.838 48.9702 233.508 50.2056 236.616C51.441 239.723 51.4035 243.198 50.9066 246.505C50.0999 251.875 47.9171 257.344 43.5233 260.537C40.1191 263.012 35.8243 263.83 31.941 265.452C28.2342 267.001 24.7598 269.421 22.7082 272.876C20.6566 276.33 20.2629 280.921 22.3879 284.331C24.5129 287.741 29.3921 289.375 32.8504 287.331C36.3087 285.286 36.9296 279.511 33.6275 277.223" stroke="black" stroke-linecap="round" stroke-linejoin="round"></path><path d="M436.573 231.24C431.549 238.178 428.254 246.215 426.961 254.683C425.763 262.586 426.66 271.454 432.19 277.223C435.885 281.077 441.621 283.073 446.784 281.718C451.948 280.364 456.114 275.393 455.956 270.057C455.799 264.721 450.841 259.822 445.521 260.266C439.873 260.734 435.838 266.62 435.712 272.285C435.587 277.95 438.441 283.257 441.77 287.844C445.099 292.43 449.01 296.654 451.54 301.725C453.725 306.105 454.801 311.18 453.728 315.956C452.655 320.731 449.197 325.097 444.509 326.498C439.822 327.899 434.112 325.775 432.096 321.315C430.079 316.855 432.816 310.713 437.63 309.827" stroke="black" stroke-linecap="round" stroke-linejoin="round"></path><path d="M407.785 315.545C411.78 306.459 412.284 296.22 409.2 286.786" stroke="black" stroke-linecap="round" stroke-linejoin="round"></path><path d="M457.681 241.459L468.124 237.543" stroke="black" stroke-linecap="round" stroke-linejoin="round"></path><path d="M422.449 196.442C430.309 189.256 436.113 180.105 439.262 169.931" stroke="black" stroke-linecap="round" stroke-linejoin="round"></path><path d="M470.095 247.288L479.303 245.139" stroke="black" stroke-linecap="round" stroke-linejoin="round"></path><path d="M309.304 121.197L303.348 111.993" stroke="black" stroke-linecap="round" stroke-linejoin="round"></path><path d="M302.266 120.114L311.471 112.533" stroke="black" stroke-linecap="round" stroke-linejoin="round"></path><path d="M312.542 185.136C310.18 184.602 307.994 183.471 306.193 181.852C304.392 180.232 303.036 178.179 302.254 175.886" stroke="black" stroke-linecap="round" stroke-linejoin="round"></path><path d="M195.052 119.515L185.85 121.155" stroke="black" stroke-linecap="round" stroke-linejoin="round"></path><path d="M190.322 124.972L189.21 115.229" stroke="black" stroke-linecap="round" stroke-linejoin="round"></path><path d="M214.553 86.5454L220.508 78.9652" stroke="black" stroke-linecap="round" stroke-linejoin="round"></path><path d="M220.442 86.0714L213.894 79.6256" stroke="black" stroke-linecap="round" stroke-linejoin="round"></path><path d="M81.2712 141.303L73.6863 132.103" stroke="black" stroke-linecap="round" stroke-linejoin="round"></path><path d="M36.9622 217.573L38.045 209.993" stroke="black" stroke-linecap="round" stroke-linejoin="round"></path><path d="M40.2114 215.948L33.1724 213.24" stroke="black" stroke-linecap="round" stroke-linejoin="round"></path><path d="M46.1671 282.545L44.0015 278.214" stroke="black" stroke-linecap="round" stroke-linejoin="round"></path><path d="M41.3271 282.595L47.8464 278.297" stroke="black" stroke-linecap="round" stroke-linejoin="round"></path><path d="M48.6031 362.534C43.9766 353.738 42.5598 343.605 44.5963 333.878" stroke="black" stroke-linecap="round" stroke-linejoin="round"></path><path d="M252.129 237.608L252.305 233.818" stroke="black" stroke-linecap="round" stroke-linejoin="round"></path><path d="M243.941 237.785L244.123 233.453" stroke="black" stroke-linecap="round" stroke-linejoin="round"></path><path d="M232.962 237.245V232.733" stroke="black" stroke-linecap="round" stroke-linejoin="round"></path><path d="M222.675 236.523C223.081 234.932 223.203 233.283 223.036 231.65" stroke="black" stroke-linecap="round" stroke-linejoin="round"></path><path d="M214.044 236.707L214.584 232.375" stroke="black" stroke-linecap="round" stroke-linejoin="round"></path><path d="M166.852 390.776C176.17 379.238 180.91 364.671 180.166 349.859" stroke="black" stroke-linecap="round" stroke-linejoin="round"></path><path d="M155.497 377.313L153.505 372.77" stroke="black" stroke-linecap="round" stroke-linejoin="round"></path><path d="M157.65 358.22C158.713 357.378 159.976 356.827 161.315 356.618" stroke="black" stroke-linecap="round" stroke-linejoin="round"></path><path d="M131.472 382.349L135.323 380.665" stroke="black" stroke-linecap="round" stroke-linejoin="round"></path><path d="M136.799 365.063L140.21 362.226" stroke="black" stroke-linecap="round" stroke-linejoin="round"></path><path d="M127.908 355.12L125.063 351.715" stroke="black" stroke-linecap="round" stroke-linejoin="round"></path><path d="M121.191 373.885L118.774 370.042" stroke="black" stroke-linecap="round" stroke-linejoin="round"></path><path d="M104.257 382.078L108.105 379.187" stroke="black" stroke-linecap="round" stroke-linejoin="round"></path><path d="M106.173 359.9L109.788 358.198L109.574 357.562" stroke="black" stroke-linecap="round" stroke-linejoin="round"></path><path d="M109.599 343.622C108.452 345.422 106.869 346.904 104.997 347.928" stroke="black" stroke-linecap="round" stroke-linejoin="round"></path><path d="M92.5242 369.562C91.358 368.388 90.5455 366.91 90.1804 365.296" stroke="black" stroke-linecap="round" stroke-linejoin="round"></path><path d="M89.6877 351.379L87.6418 346.991" stroke="black" stroke-linecap="round" stroke-linejoin="round"></path><path d="M69.6404 359.504L72.7758 357.107" stroke="black" stroke-linecap="round" stroke-linejoin="round"></path><path d="M79.5654 337.228L84.117 334.546" stroke="black" stroke-linecap="round" stroke-linejoin="round"></path><path d="M64.8673 338.542L63.447 332.761" stroke="black" stroke-linecap="round" stroke-linejoin="round"></path><path d="M75.8574 319.527C76.8678 317.63 78.2757 315.973 79.985 314.67L79.6928 314.031" stroke="black" stroke-linecap="round" stroke-linejoin="round"></path><path d="M78.7112 301.571L74.4924 298.121" stroke="black" stroke-linecap="round" stroke-linejoin="round"></path><path d="M388.716 307.031L393.288 304.143" stroke="black" stroke-linecap="round" stroke-linejoin="round"></path><path d="M388.249 286.331L386.979 280.329" stroke="black" stroke-linecap="round" stroke-linejoin="round"></path><path d="M378.345 289.048L374.022 287.572" stroke="black" stroke-linecap="round" stroke-linejoin="round"></path><path d="M391.169 327.476C389.754 319.88 386.749 312.67 382.351 306.318C380.449 303.575 378.055 300.853 374.804 300.096" stroke="black" stroke-linecap="round" stroke-linejoin="round"></path><path d="M292.521 242.48L295.589 240.676" stroke="black" stroke-linecap="round" stroke-linejoin="round"></path><path d="M277.746 241.209L277.865 241.72C276.728 240.186 275.534 238.697 274.281 237.254" stroke="black" stroke-linecap="round" stroke-linejoin="round"></path><path d="M260.137 241.87C260.871 241.027 261.842 240.426 262.925 240.146" stroke="black" stroke-linecap="round" stroke-linejoin="round"></path><path d="M192.176 241.033L187.445 238.394" stroke="black" stroke-linecap="round" stroke-linejoin="round"></path><path d="M315.84 245.863C314.917 245.074 314.13 244.139 313.509 243.096" stroke="black" stroke-linecap="round" stroke-linejoin="round"></path><path d="M376.262 272.619C375.151 272.702 374.037 272.517 373.013 272.078" stroke="black" stroke-linecap="round" stroke-linejoin="round"></path><g opacity="0.1"><path d="M267.396 158.928C264.155 159.26 261.232 160.42 258.104 161.29C255.188 162.1 252.228 162.77 249.26 163.36C243.287 164.495 237.214 165.013 231.135 164.907C227.711 164.88 224.888 168.392 225.927 171.745C228.466 179.972 229.349 188.621 228.524 197.192C228.101 201.362 227.245 205.478 225.972 209.472C224.657 213.699 222.416 217.474 220.964 221.617C220.079 224.145 221.764 227.093 224.116 228.039C226.843 229.136 229.209 228.028 230.915 225.812C233.746 222.135 235.379 216.833 236.739 212.44C238.197 207.613 239.165 202.651 239.627 197.629C240.562 187.919 239.442 178.121 236.342 168.872L231.134 175.711C237.968 175.466 244.762 174.558 251.42 172.999C257.639 171.549 265.14 169.596 270.104 165.471C272.562 163.429 270.631 158.596 267.396 158.928Z" fill="black"></path></g><g opacity="0.1"><path d="M85.0678 280.717C78.2761 282.859 73.2866 290.576 69.4428 296.195C65.3694 302.227 61.9689 308.687 59.3022 315.459C56.6183 322.188 54.7543 329.215 53.7501 336.39C52.6767 343.978 52.36 351.84 54.4959 359.29C58.8189 374.373 72.136 382.171 86.209 386.735C101.594 391.651 117.63 394.227 133.781 394.375C143 394.453 152.211 393.775 161.319 392.348C165.848 391.654 170.339 390.763 174.795 389.677C179.352 388.563 184.191 387.537 188.256 385.135C192.571 382.587 191.103 374.436 185.521 375.036C181.522 375.466 177.843 376.741 173.964 377.75C170.295 378.705 166.595 379.525 162.864 380.213C155.918 381.478 148.891 382.242 141.837 382.501C127.186 383.094 112.525 381.571 98.309 377.978C87.059 375.114 73.0798 371.391 67.2788 360.243C61.6163 349.361 64.5475 334.689 67.9314 323.565C71.0699 313.254 76.0345 303.589 82.5887 295.032C85.0517 291.826 87.9814 288.769 89.2423 284.892C90.0319 282.464 87.4788 279.956 85.0678 280.717Z" fill="black"></path></g></g></svg>